HIERARCHY
ROOT joint_Root
{
	OFFSET 0.0 0.0 0.0
	CHANNELS 6 Xposition Yposition Zposition Zrotation Xrotation Yrotation 
	JOINT Hips
	{
		OFFSET 4.5925 91.4895 -427.239
		CHANNELS 6 Xposition Yposition Zposition Zrotation Xrotation Yrotation 
		JOINT Spine
		{
			OFFSET 15.7357 0.0 0.0
			CHANNELS 6 Xposition Yposition Zposition Zrotation Xrotation Yrotation 
			JOINT Chest
			{
				OFFSET 8.98455 -0.406207 0.0
				CHANNELS 6 Xposition Yposition Zposition Zrotation Xrotation Yrotation 
				JOINT Neck
				{
					OFFSET 16.3773 0.0 0.0
					CHANNELS 6 Xposition Yposition Zposition Zrotation Xrotation Yrotation 
					JOINT Head
					{
						OFFSET 6.45672 0.0 0.0
						CHANNELS 6 Xposition Yposition Zposition Zrotation Xrotation Yrotation 
						End Site
						{
							OFFSET 0.0 0.0 0.0
						}
					}
				}
				JOINT Shoulder_L
				{
					OFFSET 12.9942 -0.242716 4.98039
					CHANNELS 6 Xposition Yposition Zposition Zrotation Xrotation Yrotation 
					JOINT UpperArm_L
					{
						OFFSET 5.34809 0.0 0.0
						CHANNELS 6 Xposition Yposition Zposition Zrotation Xrotation Yrotation 
						JOINT LowerArm_L
						{
							OFFSET 24.3286 1.87007e-05 0.0
							CHANNELS 6 Xposition Yposition Zposition Zrotation Xrotation Yrotation 
							JOINT Hand_L
							{
								OFFSET 22.2916 0.0 0.0
								CHANNELS 6 Xposition Yposition Zposition Zrotation Xrotation Yrotation 
								End Site
								{
									OFFSET 0.0 0.0 0.0
								}
							}
						}
					}
				}
				JOINT Shoulder_R
				{
					OFFSET 12.9945 -0.242716 -4.98039
					CHANNELS 6 Xposition Yposition Zposition Zrotation Xrotation Yrotation 
					JOINT UpperArm_R
					{
						OFFSET -5.34813 0.0 0.0
						CHANNELS 6 Xposition Yposition Zposition Zrotation Xrotation Yrotation 
						JOINT LowerArm_R
						{
							OFFSET -24.3289 0.000322201 0.0
							CHANNELS 6 Xposition Yposition Zposition Zrotation Xrotation Yrotation 
							JOINT Hand_R
							{
								OFFSET -22.2915 -0.000108084 0.0
								CHANNELS 6 Xposition Yposition Zposition Zrotation Xrotation Yrotation 
								End Site
								{
									OFFSET 0.0 0.0 0.0
								}
							}
						}
					}
				}
			}
		}
		JOINT UpperLeg_L
		{
			OFFSET -2.19248 -6.46944 0.0
			CHANNELS 6 Xposition Yposition Zposition Zrotation Xrotation Yrotation 
			JOINT LowerLeg_L
			{
				OFFSET 39.0811 0.0 -1.23785e-05
				CHANNELS 6 Xposition Yposition Zposition Zrotation Xrotation Yrotation 
				JOINT Foot_L
				{
					OFFSET 40.9854 0.0 -1.26872e-05
					CHANNELS 6 Xposition Yposition Zposition Zrotation Xrotation Yrotation 
					JOINT Toes_L
					{
						OFFSET 11.7543 0.0 0.0
						CHANNELS 6 Xposition Yposition Zposition Zrotation Xrotation Yrotation 
						End Site
						{
							OFFSET 0.0 0.0 0.0
						}
					}
				}
			}
		}
		JOINT UpperLeg_R
		{
			OFFSET -2.19251 6.46944 0.0
			CHANNELS 6 Xposition Yposition Zposition Zrotation Xrotation Yrotation 
			JOINT LowerLeg_R
			{
				OFFSET -39.0811 -0.00228153 -0.0401928
				CHANNELS 6 Xposition Yposition Zposition Zrotation Xrotation Yrotation 
				JOINT Foot_R
				{
					OFFSET -40.9854 0.0 0.0
					CHANNELS 6 Xposition Yposition Zposition Zrotation Xrotation Yrotation 
					JOINT Toes_R
					{
						OFFSET -11.7543 0.0 0.0
						CHANNELS 6 Xposition Yposition Zposition Zrotation Xrotation Yrotation 
						End Site
						{
							OFFSET 0.0 0.0 0.0
						}
					}
				}
			}
		}
	}
}
MOTION
Frames:	9
Frame Time:	0.0333333
0.000000 0.000000 0.000000 0.000000 0.000000 -0.000000 -4.202190 91.908900 1.043790 90.639300 -6.068130 2.918450 15.735700 0.000005 -0.000001 74.399900 85.193800 -69.629000 8.984550 -0.406207 -0.000000 1.630440 -2.838400 9.575470 16.377300 -0.000001 -0.000001 6.164950 -1.474880 -3.068360 6.456720 -0.000001 -0.000000 1.160630 -1.532960 -0.796328 12.994200 -0.242716 4.980390 -85.201500 -10.609100 -65.489500 5.348090 -0.000007 -0.000001 -30.372900 -58.374000 -57.886300 24.328600 0.000019 0.000005 -0.438384 -0.249432 -60.333400 22.291600 -0.000001 0.000005 16.297300 5.440290 -4.295860 12.994500 -0.242716 -4.980390 87.356100 9.210470 -73.907000 -5.348130 -0.000001 -0.000004 -56.901000 23.499400 -0.036368 -24.328900 0.000322 -0.000009 0.790733 1.549050 -27.076200 -22.291500 -0.000108 -0.000004 18.848200 5.442540 -4.375180 -2.192480 -6.469440 -0.000000 -173.660000 -18.482900 -0.251612 39.081100 -0.000007 -0.000012 -0.101144 0.269599 20.564400 40.985400 -0.000006 -0.000013 -2.326610 9.486240 -66.097000 11.754300 -0.000000 0.000003 -0.000072 -0.000776 -16.607500 -2.192510 6.469440 -0.000001 176.648000 23.292300 178.164000 -39.081100 -0.002282 -0.040193 -0.055131 0.133854 23.587900 -40.985400 0.000008 0.000006 8.088900 18.487900 -70.568700 -11.754300 -0.000006 -0.000006 -0.316548 -0.384260 -16.329600
0.000000 0.000000 0.000000 0.000000 0.000000 -0.000000 -4.434120 91.958800 0.820158 90.490600 -5.372890 2.821530 15.735700 0.000005 -0.000001 74.561700 85.179800 -70.042500 8.984550 -0.406207 -0.000000 1.655320 -2.805330 9.072510 16.377300 -0.000001 -0.000001 5.352820 -1.591910 -2.807260 6.456720 -0.000001 -0.000000 0.955690 -1.493720 -1.113010 12.994200 -0.242716 4.980390 -86.100000 -9.041670 -66.550000 5.348090 -0.000007 -0.000001 -27.945200 -53.509400 -49.852200 24.328600 0.000019 0.000005 0.067461 0.021890 -71.042100 22.291600 -0.000001 0.000005 15.563600 5.430540 -3.955040 12.994500 -0.242716 -4.980390 87.364300 9.146120 -73.848300 -5.348130 -0.000001 -0.000004 -57.758300 23.796200 -0.699292 -24.328900 0.000322 -0.000009 0.545761 1.102600 -26.379700 -22.291500 -0.000108 -0.000004 18.749100 5.439010 -4.251160 -2.192480 -6.469440 -0.000000 -173.418000 -18.159200 -0.568260 39.081100 -0.000007 -0.000012 -0.108045 0.289845 20.444000 40.985400 -0.000006 -0.000013 -2.431620 9.823320 -65.749800 11.754300 -0.000000 0.000003 -0.000087 -0.000915 -16.612800 -2.192510 6.469440 -0.000001 176.952000 24.135800 178.254000 -39.081100 -0.002282 -0.040193 -0.059991 0.148207 23.129900 -40.985400 0.000008 0.000006 7.947190 18.680500 -70.227000 -11.754300 -0.000006 -0.000006 -0.450050 -0.550732 -16.225400
0.000000 0.000000 0.000000 0.000000 0.000000 -0.000000 -4.638630 91.983900 0.604866 90.341400 -4.632400 2.810440 15.735700 0.000005 -0.000001 74.906500 85.128900 -70.664700 8.984550 -0.406207 -0.000000 1.758430 -2.757310 8.519570 16.377300 -0.000001 -0.000001 4.445140 -1.873780 -2.399670 6.456720 -0.000001 -0.000000 0.870655 -1.523180 -1.340380 12.994200 -0.242716 4.980390 -87.095200 -7.138840 -67.791300 5.348090 -0.000007 -0.000001 -25.905500 -47.509700 -42.107500 24.328600 0.000019 0.000005 1.154390 0.177095 -81.212900 22.291600 -0.000001 0.000005 14.583300 5.416400 -3.477770 12.994500 -0.242716 -4.980390 87.357000 9.131040 -73.780700 -5.348130 -0.000001 -0.000004 -58.336300 24.711600 -1.327920 -24.328900 0.000322 -0.000009 0.410721 0.842614 -26.046000 -22.291500 -0.000108 -0.000004 18.598200 5.439410 -4.265170 -2.192480 -6.469440 -0.000000 -173.152000 -17.865600 -0.875104 39.081100 -0.000007 -0.000012 -0.109238 0.292169 20.500100 40.985400 -0.000006 -0.000013 -2.479680 10.312800 -65.510300 11.754300 -0.000000 0.000003 -0.000098 -0.001014 -16.616500 -2.192510 6.469440 -0.000001 177.121000 25.163300 178.398000 -39.081100 -0.002282 -0.040193 -0.076453 0.189827 22.793300 -40.985400 0.000008 0.000006 7.599720 19.056300 -69.883800 -11.754300 -0.000006 -0.000006 -0.395686 -0.482615 -16.268000
0.000000 0.000000 0.000000 0.000000 0.000000 -0.000000 -4.787660 92.018800 0.370801 90.255600 -3.967060 2.725380 15.735700 0.000005 -0.000001 75.673900 85.135500 -71.791000 8.984550 -0.406207 -0.000000 1.762490 -2.609020 7.799980 16.377300 -0.000001 -0.000001 3.678870 -2.151760 -1.925450 6.456720 -0.000001 -0.000000 0.709931 -1.819460 -1.315750 12.994200 -0.242716 4.980390 -87.962900 -5.260520 -68.798600 5.348090 -0.000007 -0.000001 -25.561700 -39.734200 -35.846100 24.328600 0.000019 0.000005 2.663570 0.015621 -89.629700 22.291600 -0.000001 0.000005 13.642800 5.421690 -3.658880 12.994500 -0.242716 -4.980390 87.340400 9.225800 -73.841700 -5.348130 -0.000001 -0.000004 -58.894200 25.611300 -1.594750 -24.328900 0.000322 -0.000009 0.403747 0.826324 -26.102000 -22.291500 -0.000108 -0.000004 18.410600 5.437980 -4.215350 -2.192480 -6.469440 -0.000000 -173.036000 -17.557100 -1.244530 39.081100 -0.000007 -0.000012 -0.108341 0.290308 20.465300 40.985400 -0.000006 -0.000013 -2.510240 10.705300 -65.220000 11.754300 -0.000000 0.000003 -0.000112 -0.001130 -16.620800 -2.192510 6.469440 -0.000001 177.318000 25.905000 178.384000 -39.081100 -0.002282 -0.040193 -0.082368 0.206927 22.493700 -40.985400 0.000008 0.000006 7.383580 19.222300 -69.570800 -11.754300 -0.000006 -0.000006 -0.455692 -0.557827 -16.221000
0.000000 0.000000 0.000000 0.000000 0.000000 -0.000000 -4.872830 92.049900 0.151177 90.149400 -3.362140 2.625870 15.735700 0.000005 -0.000001 76.374900 85.098100 -72.856200 8.984550 -0.406207 -0.000000 1.849850 -2.489470 7.071990 16.377300 -0.000001 -0.000001 2.850560 -2.418120 -1.284960 6.456720 -0.000001 -0.000000 0.498333 -1.913680 -1.352900 12.994200 -0.242716 4.980390 -88.843200 -3.135090 -69.736300 5.348090 -0.000007 -0.000001 -26.255200 -30.848700 -30.499600 24.328600 0.000019 0.000005 5.645740 -0.534923 -95.381900 22.291600 -0.000001 0.000005 11.751600 5.419930 -3.598720 12.994500 -0.242716 -4.980390 87.368200 9.290970 -74.107900 -5.348130 -0.000001 -0.000004 -59.424200 26.329700 -1.891710 -24.328900 0.000322 -0.000009 0.335269 0.681645 -26.263700 -22.291500 -0.000108 -0.000004 18.217300 5.436360 -4.159000 -2.192480 -6.469440 -0.000000 -172.974000 -17.126900 -1.640520 39.081100 -0.000007 -0.000012 -0.110203 0.294961 20.486700 40.985400 -0.000006 -0.000013 -2.528800 10.871100 -64.998700 11.754300 -0.000000 0.000003 -0.000097 -0.001006 -16.616200 -2.192510 6.469440 -0.000001 177.544000 26.415700 178.315000 -39.081100 -0.002282 -0.040193 -0.086122 0.218751 22.238000 -40.985400 0.000008 0.000006 7.227040 19.179200 -69.291700 -11.754300 -0.000006 -0.000006 -0.352599 -0.428947 -16.301500
0.000000 0.000000 0.000000 0.000000 0.000000 -0.000000 -4.875200 92.091900 -0.047553 90.023200 -2.940580 2.628880 15.735700 0.000005 -0.000001 77.211100 85.030800 -74.056200 8.984550 -0.406207 -0.000000 2.000180 -2.357080 6.345790 16.377300 -0.000001 -0.000001 2.220750 -2.559490 -0.754665 6.456720 -0.000001 -0.000000 0.146263 -2.085430 -1.227410 12.994200 -0.242716 4.980390 -89.661700 -0.943609 -70.279000 5.348090 -0.000007 -0.000001 -27.931100 -20.775300 -26.211100 24.328600 0.000019 0.000005 8.749200 -1.128230 -97.291900 22.291600 -0.000001 0.000005 10.390600 5.418900 -3.563500 12.994500 -0.242716 -4.980390 87.432600 9.301750 -74.495100 -5.348130 -0.000001 -0.000004 -59.894200 27.037900 -2.273320 -24.328900 0.000322 -0.000009 0.273130 0.556113 -26.246900 -22.291500 -0.000108 -0.000004 18.108300 5.436120 -4.150370 -2.192480 -6.469440 -0.000000 -172.921000 -16.692800 -1.853570 39.081100 -0.000007 -0.000012 -0.111856 0.300021 20.446900 40.985400 -0.000006 -0.000013 -2.529240 10.851200 -64.800900 11.754300 -0.000000 0.000003 -0.000126 -0.001252 -16.625300 -2.192510 6.469440 -0.000001 177.656000 26.986600 178.401000 -39.081100 -0.002282 -0.040193 -0.087071 0.224823 21.902400 -40.985400 0.000008 0.000006 7.041420 19.403600 -68.964600 -11.754300 -0.000006 -0.000006 -0.425927 -0.520449 -16.244100
0.000000 0.000000 0.000000 0.000000 0.000000 -0.000000 -4.806460 92.117900 -0.203953 89.898500 -2.610180 2.586730 15.735700 0.000005 -0.000001 78.595600 85.018800 -75.802200 8.984550 -0.406207 -0.000000 2.058600 -2.107570 5.620000 16.377300 -0.000001 -0.000001 1.706180 -2.710470 -0.227538 6.456720 -0.000001 -0.000000 -0.133867 -2.193840 -1.186060 12.994200 -0.242716 4.980390 -90.323100 0.933294 -70.897000 5.348090 -0.000007 -0.000001 -31.151500 -10.505400 -22.572600 24.328600 0.000019 0.000005 11.279800 -1.035390 -95.183600 22.291600 -0.000001 0.000005 9.360580 5.421750 -3.659110 12.994500 -0.242716 -4.980390 87.467300 9.388380 -74.828800 -5.348130 -0.000001 -0.000004 -60.215800 27.549100 -2.519040 -24.328900 0.000322 -0.000009 0.215299 0.438088 -26.285300 -22.291500 -0.000108 -0.000004 18.067900 5.437830 -4.209970 -2.192480 -6.469440 -0.000000 -172.931000 -16.322300 -2.153860 39.081100 -0.000007 -0.000012 -0.114016 0.304069 20.554500 40.985400 -0.000006 -0.000013 -2.474710 10.760200 -64.716500 11.754300 -0.000000 0.000003 -0.000146 -0.001417 -16.631500 -2.192510 6.469440 -0.000001 177.731000 27.355400 178.406000 -39.081100 -0.002282 -0.040193 -0.095237 0.248213 21.656000 -40.985400 0.000008 0.000006 6.685030 19.540200 -68.631300 -11.754300 -0.000006 -0.000006 -0.297819 -0.362515 -16.343900
0.000000 0.000000 0.000000 0.000000 0.000000 -0.000000 -4.676270 92.148700 -0.327772 89.723800 -2.548580 2.603350 15.735700 0.000005 -0.000001 80.818400 85.016400 -78.376100 8.984550 -0.406207 -0.000000 2.115570 -1.709640 4.911930 16.377300 -0.000001 -0.000001 1.436700 -2.798280 0.162327 6.456720 -0.000001 -0.000000 -0.498249 -2.306110 -0.767116 12.994200 -0.242716 4.980390 -90.825900 2.467860 -71.488400 5.348090 -0.000007 -0.000001 -36.027900 -1.738060 -19.324500 24.328600 0.000019 0.000005 15.110700 -0.062822 -90.242200 22.291600 -0.000001 0.000005 8.219300 5.414670 -3.418930 12.994500 -0.242716 -4.980390 87.513000 9.505960 -75.265400 -5.348130 -0.000001 -0.000004 -60.484700 28.026600 -2.682800 -24.328900 0.000322 -0.000009 0.185866 0.380707 -26.151600 -22.291500 -0.000108 -0.000004 18.071400 5.437810 -4.209470 -2.192480 -6.469440 -0.000000 -172.861000 -16.268700 -2.289000 39.081100 -0.000007 -0.000012 -0.116777 0.310023 20.640000 40.985400 -0.000006 -0.000013 -2.370350 10.773800 -64.682100 11.754300 -0.000000 0.000003 -0.000170 -0.001618 -16.638900 -2.192510 6.469440 -0.000001 177.849000 27.231200 178.481000 -39.081100 -0.002282 -0.040193 -0.101651 0.268818 21.330100 -40.985400 0.000008 0.000006 6.181470 19.465600 -68.191500 -11.754300 -0.000006 -0.000006 -0.117597 -0.143590 -16.485100
0.000000 0.000000 0.000000 0.000000 0.000000 -0.000000 -4.504970 92.185000 -0.396082 89.562400 -2.551360 2.624280 15.735700 0.000005 -0.000001 82.644400 85.023500 -80.554300 8.984550 -0.406207 -0.000000 2.134190 -1.376010 4.201940 16.377300 -0.000001 -0.000001 1.245420 -2.845250 0.596149 6.456720 -0.000001 -0.000000 -0.728395 -2.380310 -0.284771 12.994200 -0.242716 4.980390 -91.121000 3.473780 -72.101400 5.348090 -0.000007 -0.000001 -42.473200 4.858930 -15.494600 24.328600 0.000019 0.000005 18.063200 1.911460 -84.163700 22.291600 -0.000001 0.000005 7.442240 5.420670 -3.623380 12.994500 -0.242716 -4.980390 87.584800 9.594640 -75.799000 -5.348130 -0.000001 -0.000004 -60.673400 28.785100 -2.869580 -24.328900 0.000322 -0.000009 0.074355 0.155582 -25.864600 -22.291500 -0.000108 -0.000004 17.973400 5.438630 -4.237590 -2.192480 -6.469440 -0.000000 -172.839000 -16.222200 -2.340260 39.081100 -0.000007 -0.000012 -0.118444 0.314065 20.663200 40.985400 -0.000006 -0.000013 -2.251040 10.684800 -64.669200 11.754300 -0.000000 0.000003 -0.000173 -0.001641 -16.639700 -2.192510 6.469440 -0.000001 177.868000 27.309700 178.626000 -39.081100 -0.002282 -0.040193 -0.106581 0.286720 20.972100 -40.985400 0.000008 0.000006 5.802820 19.637300 -67.813400 -11.754300 -0.000006 -0.000006 -0.000007 -0.000100 -16.577800
